<svg width="210" height="88" viewBox="0 0 210 88" fill="none" xmlns="http://www.w3.org/2000/svg">
<path fill-rule="evenodd" clip-rule="evenodd" d="M47.3732 63.0203L68.385 80.9799L89.3968 63.0203C92.2324 60.1851 94.4289 56.8776 95.9243 53.1905C97.3683 49.6303 98.1004 45.8691 98.1004 42.0114C98.1004 38.1536 97.3683 34.3925 95.9243 30.8322C94.4288 27.145 92.2325 23.8377 89.3967 21.0024C86.5608 18.1669 83.2531 15.971 79.5654 14.4757C76.0047 13.0319 72.2431 12.2998 68.385 12.2998C64.5269 12.2998 60.7652 13.0319 57.2045 14.4757C53.5168 15.9709 50.2091 18.1669 47.3733 21.0023C44.5374 23.8377 42.3411 27.145 40.8456 30.8322C39.4016 34.3925 38.6695 38.1536 38.6695 42.0114C38.6695 45.8691 39.4016 49.6303 40.8456 53.1905C42.3411 56.8779 44.5374 60.1851 47.3732 63.0203ZM89.6384 42.5143C89.6384 54.2483 80.1268 63.7602 68.3925 63.7602C56.6588 63.7602 47.1462 54.248 47.1462 42.5143C47.1462 30.7806 56.6591 21.2684 68.3925 21.2684C80.1268 21.2684 89.6384 30.7806 89.6384 42.5143ZM80.3892 42.5561C80.3892 49.1588 75.0144 54.5113 68.3851 54.5113C61.7552 54.5113 56.3807 49.1588 56.3807 42.5561C56.3807 35.9537 61.7549 30.6012 68.3851 30.6012C75.0144 30.6012 80.3892 35.9537 80.3892 42.5561Z" fill="#D43630"></path>
<path d="M20.2065 68.6695C16.8611 68.6695 13.9617 68.112 11.5084 66.9968C9.05505 65.8817 7.15929 64.2982 5.82111 62.2463C4.52754 60.1498 3.85845 57.6965 3.81384 54.8863H12.1775C12.1775 56.8936 12.8912 58.4771 14.3186 59.6368C15.7906 60.752 17.7755 61.3096 20.2735 61.3096C22.6822 61.3096 24.5556 60.752 25.8938 59.6368C27.2766 58.5217 27.968 56.9828 27.968 55.0201C27.968 53.3697 27.4773 51.9423 26.496 50.7379C25.5593 49.489 24.1988 48.6414 22.4145 48.1954L16.7942 46.6565C12.9581 45.6751 9.99177 43.9132 7.89529 41.3707C5.84342 38.8281 4.81748 35.7503 4.81748 32.1372C4.81748 29.3717 5.44196 26.9629 6.69093 24.9111C7.9399 22.8592 9.70183 21.2757 11.9767 20.1605C14.2963 19.0454 17.0172 18.4878 20.1396 18.4878C24.8679 18.4878 28.6148 19.7145 31.3804 22.1678C34.1459 24.5765 35.551 27.8327 35.5956 31.9365H27.232C27.232 30.0184 26.6075 28.5241 25.3585 27.4536C24.1096 26.3384 22.3476 25.7809 20.0727 25.7809C17.887 25.7809 16.192 26.2938 14.9876 27.3198C13.7833 28.3457 13.1811 29.7954 13.1811 31.6689C13.1811 33.3639 13.6272 34.8136 14.5193 36.0179C15.456 37.1777 16.7942 38.0029 18.5338 38.4936L24.3549 40.0994C28.2356 41.0807 31.2019 42.8427 33.2538 45.3852C35.3057 47.8831 36.3316 50.9833 36.3316 54.6856C36.3316 57.4511 35.6625 59.9045 34.3243 62.0455C32.9862 64.142 31.1127 65.7702 28.704 66.9299C26.2953 68.0897 23.4628 68.6695 20.2065 68.6695Z" fill="white"></path>
<path d="M115.961 68.6695C112.616 68.6695 109.717 68.112 107.263 66.9968C104.81 65.8817 102.914 64.2982 101.576 62.2463C100.282 60.1498 99.6134 57.6965 99.5688 54.8863H107.932C107.932 56.8936 108.646 58.4771 110.073 59.6368C111.545 60.752 113.53 61.3096 116.028 61.3096C118.437 61.3096 120.311 60.752 121.649 59.6368C123.032 58.5217 123.723 56.9828 123.723 55.0201C123.723 53.3697 123.232 51.9423 122.251 50.7379C121.314 49.489 119.954 48.6414 118.169 48.1954L112.549 46.6565C108.713 45.6751 105.747 43.9132 103.65 41.3707C101.598 38.8281 100.572 35.7503 100.572 32.1372C100.572 29.3717 101.197 26.9629 102.446 24.9111C103.695 22.8592 105.457 21.2757 107.732 20.1605C110.051 19.0454 112.772 18.4878 115.895 18.4878C120.623 18.4878 124.37 19.7145 127.135 22.1678C129.901 24.5765 131.306 27.8327 131.351 31.9365H122.987C122.987 30.0184 122.362 28.5241 121.113 27.4536C119.865 26.3384 118.103 25.7809 115.828 25.7809C113.642 25.7809 111.947 26.2938 110.743 27.3198C109.538 28.3457 108.936 29.7954 108.936 31.6689C108.936 33.3639 109.382 34.8136 110.274 36.0179C111.211 37.1777 112.549 38.0029 114.289 38.4936L120.11 40.0994C123.991 41.0807 126.957 42.8427 129.009 45.3852C131.061 47.8831 132.087 50.9833 132.087 54.6856C132.087 57.4511 131.417 59.9045 130.079 62.0455C128.741 64.142 126.868 65.7702 124.459 66.9299C122.05 68.0897 119.218 68.6695 115.961 68.6695Z" fill="white"></path>
<path d="M204.953 39.8615C204.173 39.8615 203.474 39.7239 202.854 39.4486C202.235 39.1618 201.742 38.7776 201.375 38.2958C201.019 37.8141 200.824 37.2807 200.79 36.6957H203.216C203.262 37.0628 203.439 37.3667 203.749 37.6076C204.07 37.8485 204.466 37.9689 204.936 37.9689C205.395 37.9689 205.751 37.8772 206.003 37.6936C206.267 37.5101 206.399 37.275 206.399 36.9882C206.399 36.6785 206.238 36.4491 205.917 36.3C205.607 36.1394 205.108 35.9674 204.42 35.7838C203.709 35.6118 203.124 35.434 202.665 35.2505C202.218 35.0669 201.828 34.7859 201.495 34.4074C201.174 34.0289 201.013 33.5185 201.013 32.8761C201.013 32.3485 201.163 31.8667 201.461 31.4309C201.77 30.995 202.206 30.6509 202.768 30.3985C203.342 30.1462 204.013 30.02 204.781 30.02C205.917 30.02 206.823 30.3068 207.5 30.8803C208.177 31.4423 208.549 32.2051 208.618 33.1686H206.313C206.278 32.7901 206.118 32.4919 205.831 32.2739C205.556 32.0445 205.183 31.9298 204.713 31.9298C204.277 31.9298 203.938 32.0101 203.697 32.1707C203.468 32.3313 203.353 32.555 203.353 32.8417C203.353 33.1629 203.514 33.4095 203.835 33.5815C204.156 33.7421 204.655 33.9084 205.332 34.0805C206.02 34.2526 206.588 34.4303 207.035 34.6139C207.483 34.7974 207.867 35.0841 208.188 35.4741C208.521 35.8527 208.693 36.3573 208.704 36.9882C208.704 37.5388 208.549 38.032 208.24 38.4679C207.941 38.9037 207.506 39.2479 206.932 39.5002C206.37 39.7411 205.71 39.8615 204.953 39.8615Z" fill="white"></path>
<path d="M188.166 34.9064C188.166 33.9429 188.355 33.0883 188.733 32.3428C189.123 31.5972 189.645 31.0237 190.299 30.6222C190.964 30.2207 191.704 30.02 192.518 30.02C193.23 30.02 193.849 30.1634 194.377 30.4502C194.916 30.7369 195.346 31.0982 195.667 31.5341V30.1749H198.093V39.7067H195.667V38.313C195.357 38.7604 194.927 39.1332 194.377 39.4314C193.838 39.7181 193.212 39.8615 192.501 39.8615C191.698 39.8615 190.964 39.6551 190.299 39.2421C189.645 38.8292 189.123 38.2499 188.733 37.5044C188.355 36.7473 188.166 35.8813 188.166 34.9064ZM195.667 34.9408C195.667 34.3558 195.552 33.8568 195.323 33.4439C195.094 33.0195 194.784 32.6983 194.394 32.4804C194.004 32.251 193.585 32.1363 193.138 32.1363C192.691 32.1363 192.278 32.2453 191.899 32.4632C191.521 32.6811 191.211 33.0023 190.97 33.4267C190.741 33.8396 190.626 34.3328 190.626 34.9064C190.626 35.4799 190.741 35.9846 190.97 36.4204C191.211 36.8448 191.521 37.1717 191.899 37.4011C192.289 37.6305 192.702 37.7453 193.138 37.7453C193.585 37.7453 194.004 37.6363 194.394 37.4183C194.784 37.1889 195.094 36.8678 195.323 36.4548C195.552 36.0304 195.667 35.5258 195.667 34.9408Z" fill="white"></path>
<path d="M176.955 34.9408C176.955 33.9543 177.156 33.0941 177.557 32.36C177.959 31.6144 178.515 31.0409 179.226 30.6394C179.937 30.2265 180.752 30.02 181.669 30.02C182.851 30.02 183.826 30.3182 184.594 30.9147C185.374 31.4997 185.896 32.3255 186.16 33.3923H183.562C183.424 32.9794 183.189 32.6582 182.857 32.4288C182.535 32.1879 182.134 32.0675 181.652 32.0675C180.964 32.0675 180.419 32.3198 180.018 32.8245C179.616 33.3177 179.416 34.0231 179.416 34.9408C179.416 35.8469 179.616 36.5523 180.018 37.057C180.419 37.5503 180.964 37.7969 181.652 37.7969C182.627 37.7969 183.264 37.361 183.562 36.4893H186.16C185.896 37.5216 185.374 38.3417 184.594 38.9496C183.814 39.5576 182.839 39.8615 181.669 39.8615C180.752 39.8615 179.937 39.6608 179.226 39.2593C178.515 38.8464 177.959 38.2729 177.557 37.5388C177.156 36.7932 176.955 35.9272 176.955 34.9408Z" fill="white"></path>
<path d="M170.986 39.8615C170.206 39.8615 169.506 39.7239 168.887 39.4486C168.268 39.1618 167.774 38.7776 167.407 38.2958C167.052 37.8141 166.857 37.2807 166.822 36.6957H169.248C169.294 37.0628 169.472 37.3667 169.782 37.6076C170.103 37.8485 170.499 37.9689 170.969 37.9689C171.428 37.9689 171.783 37.8772 172.036 37.6936C172.3 37.5101 172.431 37.275 172.431 36.9882C172.431 36.6785 172.271 36.4491 171.95 36.3C171.64 36.1394 171.141 35.9674 170.453 35.7838C169.742 35.6118 169.157 35.434 168.698 35.2505C168.25 35.0669 167.861 34.7859 167.528 34.4074C167.207 34.0289 167.046 33.5185 167.046 32.8761C167.046 32.3485 167.195 31.8667 167.493 31.4309C167.803 30.995 168.239 30.6509 168.801 30.3985C169.375 30.1462 170.046 30.02 170.814 30.02C171.95 30.02 172.856 30.3068 173.533 30.8803C174.209 31.4423 174.582 32.2051 174.651 33.1686H172.345C172.311 32.7901 172.15 32.4919 171.864 32.2739C171.588 32.0445 171.216 31.9298 170.745 31.9298C170.309 31.9298 169.971 32.0101 169.73 32.1707C169.501 32.3313 169.386 32.555 169.386 32.8417C169.386 33.1629 169.547 33.4095 169.868 33.5815C170.189 33.7421 170.688 33.9084 171.365 34.0805C172.053 34.2526 172.621 34.4303 173.068 34.6139C173.515 34.7974 173.9 35.0841 174.221 35.4741C174.553 35.8527 174.725 36.3573 174.737 36.9882C174.737 37.5388 174.582 38.032 174.272 38.4679C173.974 38.9037 173.538 39.2479 172.965 39.5002C172.403 39.7411 171.743 39.8615 170.986 39.8615Z" fill="white"></path>
<path d="M164.102 30.1748V39.7066H161.676V38.5022C161.366 38.9152 160.959 39.2421 160.454 39.4829C159.961 39.7123 159.422 39.827 158.837 39.827C158.091 39.827 157.432 39.6722 156.858 39.3625C156.285 39.0413 155.832 38.5768 155.499 37.9689C155.178 37.3495 155.017 36.6154 155.017 35.7666V30.1748H157.426V35.4225C157.426 36.1795 157.615 36.7645 157.994 37.1774C158.372 37.5789 158.888 37.7796 159.542 37.7796C160.208 37.7796 160.729 37.5789 161.108 37.1774C161.487 36.7645 161.676 36.1795 161.676 35.4225V30.1748H164.102Z" fill="white"></path>
<path d="M150.001 33.5471C150.677 33.6733 151.234 34.0117 151.669 34.5622C152.105 35.1128 152.323 35.7437 152.323 36.4548C152.323 37.0972 152.163 37.6649 151.842 38.1582C151.532 38.6399 151.079 39.0184 150.482 39.2937C149.886 39.569 149.18 39.7066 148.366 39.7066H143.187V27.6973H148.142C148.957 27.6973 149.656 27.8292 150.241 28.093C150.838 28.3568 151.285 28.7239 151.583 29.1941C151.893 29.6644 152.048 30.1978 152.048 30.7942C152.048 31.4939 151.859 32.0789 151.48 32.5492C151.113 33.0195 150.62 33.3521 150.001 33.5471ZM145.596 32.6524H147.798C148.372 32.6524 148.813 32.5263 149.123 32.2739C149.433 32.0101 149.588 31.6373 149.588 31.1556C149.588 30.6738 149.433 30.301 149.123 30.0372C148.813 29.7734 148.372 29.6415 147.798 29.6415H145.596V32.6524ZM148.022 37.7452C148.607 37.7452 149.06 37.6076 149.381 37.3323C149.714 37.057 149.88 36.667 149.88 36.1623C149.88 35.6462 149.708 35.2447 149.364 34.958C149.02 34.6597 148.555 34.5106 147.97 34.5106H145.596V37.7452H148.022Z" fill="white"></path>
<path d="M199.649 53.9135C199.649 54.2576 199.626 54.5673 199.58 54.8426H192.612C192.669 55.5308 192.91 56.0699 193.334 56.4599C193.759 56.8499 194.28 57.0449 194.9 57.0449C195.795 57.0449 196.431 56.6606 196.81 55.8921H199.408C199.132 56.8097 198.605 57.5668 197.825 58.1632C197.045 58.7482 196.087 59.0407 194.951 59.0407C194.034 59.0407 193.208 58.84 192.474 58.4385C191.751 58.0256 191.183 57.4463 190.771 56.7008C190.369 55.9552 190.168 55.0949 190.168 54.12C190.168 53.1335 190.369 52.2675 190.771 51.5219C191.172 50.7764 191.734 50.2029 192.457 49.8014C193.179 49.3999 194.011 49.1992 194.951 49.1992C195.858 49.1992 196.666 49.3942 197.377 49.7842C198.1 50.1742 198.656 50.7305 199.046 51.4531C199.448 52.1643 199.649 52.9844 199.649 53.9135ZM197.154 53.2253C197.142 52.6059 196.919 52.1127 196.483 51.7456C196.047 51.3671 195.513 51.1778 194.883 51.1778C194.286 51.1778 193.781 51.3614 193.369 51.7284C192.967 52.084 192.72 52.583 192.629 53.2253H197.154Z" fill="white"></path>
<path d="M183.834 49.2168C184.97 49.2168 185.888 49.5781 186.587 50.3007C187.287 51.0119 187.637 52.0098 187.637 53.2945V58.8862H185.228V53.6214C185.228 52.8643 185.039 52.2851 184.66 51.8836C184.282 51.4707 183.766 51.2642 183.112 51.2642C182.447 51.2642 181.919 51.4707 181.529 51.8836C181.15 52.2851 180.961 52.8643 180.961 53.6214V58.8862H178.552V49.3544H180.961V50.5416C181.282 50.1287 181.69 49.8075 182.183 49.5781C182.687 49.3372 183.238 49.2168 183.834 49.2168Z" fill="white"></path>
<path d="M174.125 48.2187C173.701 48.2187 173.345 48.0868 173.058 47.8229C172.783 47.5476 172.645 47.2093 172.645 46.8078C172.645 46.4064 172.783 46.0737 173.058 45.8099C173.345 45.5346 173.701 45.397 174.125 45.397C174.55 45.397 174.899 45.5346 175.175 45.8099C175.461 46.0737 175.605 46.4064 175.605 46.8078C175.605 47.2093 175.461 47.5476 175.175 47.8229C174.899 48.0868 174.55 48.2187 174.125 48.2187ZM175.312 49.3542V58.886H172.904V49.3542H175.312Z" fill="white"></path>
<path d="M169.663 46.1538V58.8858H167.255V46.1538H169.663Z" fill="white"></path>
<path d="M160.301 49.2168C161.437 49.2168 162.355 49.5781 163.054 50.3007C163.754 51.0119 164.104 52.0098 164.104 53.2945V58.8862H161.695V53.6214C161.695 52.8643 161.506 52.2851 161.127 51.8836C160.749 51.4707 160.233 51.2642 159.579 51.2642C158.913 51.2642 158.386 51.4707 157.996 51.8836C157.617 52.2851 157.428 52.8643 157.428 53.6214V58.8862H155.019V49.3544H157.428V50.5416C157.749 50.1287 158.156 49.8075 158.65 49.5781C159.154 49.3372 159.705 49.2168 160.301 49.2168Z" fill="white"></path>
<path d="M147.42 59.0407C146.502 59.0407 145.676 58.84 144.942 58.4385C144.208 58.0256 143.629 57.4463 143.204 56.7008C142.791 55.9552 142.585 55.0949 142.585 54.12C142.585 53.145 142.797 52.2847 143.222 51.5392C143.657 50.7936 144.248 50.2201 144.994 49.8186C145.739 49.4057 146.571 49.1992 147.489 49.1992C148.406 49.1992 149.238 49.4057 149.983 49.8186C150.729 50.2201 151.314 50.7936 151.738 51.5392C152.174 52.2847 152.392 53.145 152.392 54.12C152.392 55.0949 152.168 55.9552 151.721 56.7008C151.285 57.4463 150.689 58.0256 149.932 58.4385C149.186 58.84 148.349 59.0407 147.42 59.0407ZM147.42 56.9417C147.856 56.9417 148.263 56.8384 148.641 56.632C149.031 56.414 149.341 56.0929 149.57 55.6685C149.8 55.2441 149.915 54.7279 149.915 54.12C149.915 53.2138 149.674 52.5199 149.192 52.0381C148.722 51.5449 148.142 51.2983 147.454 51.2983C146.766 51.2983 146.187 51.5449 145.716 52.0381C145.258 52.5199 145.028 53.2138 145.028 54.12C145.028 55.0261 145.252 55.7258 145.699 56.219C146.158 56.7008 146.732 56.9417 147.42 56.9417Z" fill="white"></path>
</svg>